<svg xmlns="http://www.w3.org/2000/svg" xmlns:xlink="http://www.w3.org/1999/xlink" width="500" zoomAndPan="magnify" viewBox="0 0 375 374.999991" height="500" preserveAspectRatio="xMidYMid meet" version="1.0"><defs><g/><clipPath id="f17e0a3e62"><path d="M 100 132.414062 L 151.628906 132.414062 L 151.628906 199.164062 L 100 199.164062 Z M 100 132.414062 " clip-rule="nonzero"/></clipPath><clipPath id="159e782b8c"><path d="M 111 193 L 162 193 L 162 230 L 111 230 Z M 111 193 " clip-rule="nonzero"/></clipPath><clipPath id="254333bf99"><path d="M 110.859375 197.59375 L 157.414062 185.898438 L 168.742188 231 L 122.1875 242.691406 Z M 110.859375 197.59375 " clip-rule="nonzero"/></clipPath><clipPath id="90773fd42c"><path d="M 110.859375 197.59375 L 157.414062 185.898438 L 168.742188 231 L 122.1875 242.691406 Z M 110.859375 197.59375 " clip-rule="nonzero"/></clipPath><clipPath id="d5c975b3a1"><path d="M 110.859375 197.59375 L 157.414062 185.898438 L 168.742188 231 L 122.1875 242.691406 Z M 110.859375 197.59375 " clip-rule="nonzero"/></clipPath><clipPath id="18b392784c"><path d="M 132 230 L 141 230 L 141 239 L 132 239 Z M 132 230 " clip-rule="nonzero"/></clipPath><clipPath id="900f1f4092"><path d="M 110.859375 197.59375 L 157.414062 185.898438 L 168.742188 231 L 122.1875 242.691406 Z M 110.859375 197.59375 " clip-rule="nonzero"/></clipPath><clipPath id="f855bd9571"><path d="M 110.859375 197.59375 L 157.414062 185.898438 L 168.742188 231 L 122.1875 242.691406 Z M 110.859375 197.59375 " clip-rule="nonzero"/></clipPath><clipPath id="ee7086d1da"><path d="M 110.859375 197.59375 L 157.414062 185.898438 L 168.742188 231 L 122.1875 242.691406 Z M 110.859375 197.59375 " clip-rule="nonzero"/></clipPath><clipPath id="8a521be1fb"><path d="M 155 225 L 164 225 L 164 234 L 155 234 Z M 155 225 " clip-rule="nonzero"/></clipPath><clipPath id="c61905602f"><path d="M 110.859375 197.59375 L 157.414062 185.898438 L 168.742188 231 L 122.1875 242.691406 Z M 110.859375 197.59375 " clip-rule="nonzero"/></clipPath><clipPath id="3169231011"><path d="M 110.859375 197.59375 L 157.414062 185.898438 L 168.742188 231 L 122.1875 242.691406 Z M 110.859375 197.59375 " clip-rule="nonzero"/></clipPath><clipPath id="b24d17de86"><path d="M 110.859375 197.59375 L 157.414062 185.898438 L 168.742188 231 L 122.1875 242.691406 Z M 110.859375 197.59375 " clip-rule="nonzero"/></clipPath><clipPath id="864a9d369a"><path d="M 189.265625 208.746094 L 274.765625 208.746094 L 274.765625 231.246094 L 189.265625 231.246094 Z M 189.265625 208.746094 " clip-rule="nonzero"/></clipPath></defs><g clip-path="url(#f17e0a3e62)"><path fill="#ff914d" d="M 125.960938 132.46875 C 120.042969 132.46875 115.226562 136.625 115.226562 141.703125 L 115.226562 148.859375 L 107.644531 148.859375 C 107.359375 148.855469 107.109375 148.945312 106.890625 149.125 C 106.671875 149.308594 106.539062 149.539062 106.492188 149.816406 L 100.074219 195.167969 C 100.035156 195.429688 100.023438 195.695312 100.042969 195.960938 C 100.058594 196.230469 100.105469 196.488281 100.179688 196.746094 C 100.257812 197.003906 100.359375 197.246094 100.484375 197.480469 C 100.613281 197.714844 100.765625 197.933594 100.9375 198.136719 C 101.113281 198.339844 101.308594 198.519531 101.523438 198.679688 C 101.734375 198.839844 101.964844 198.972656 102.207031 199.082031 C 102.449219 199.195312 102.703125 199.277344 102.964844 199.332031 C 103.222656 199.386719 103.488281 199.414062 103.753906 199.414062 L 148.167969 199.414062 C 148.4375 199.414062 148.699219 199.386719 148.960938 199.332031 C 149.222656 199.277344 149.472656 199.195312 149.71875 199.082031 C 149.960938 198.972656 150.1875 198.839844 150.402344 198.679688 C 150.617188 198.519531 150.8125 198.339844 150.984375 198.136719 C 151.160156 197.933594 151.3125 197.714844 151.4375 197.480469 C 151.566406 197.246094 151.667969 197.003906 151.742188 196.746094 C 151.816406 196.488281 151.863281 196.230469 151.882812 195.960938 C 151.902344 195.695312 151.890625 195.429688 151.851562 195.167969 L 145.386719 149.785156 C 145.339844 149.503906 145.207031 149.273438 144.988281 149.089844 C 144.769531 148.910156 144.515625 148.820312 144.234375 148.824219 L 136.695312 148.824219 L 136.695312 141.703125 C 136.695312 136.625 131.882812 132.46875 125.960938 132.46875 Z M 117.46875 148.859375 L 117.46875 141.703125 C 117.46875 137.824219 121.277344 134.675781 125.960938 134.675781 C 130.648438 134.675781 134.457031 137.847656 134.457031 141.703125 L 134.457031 148.859375 Z M 117.46875 148.859375 " fill-opacity="1" fill-rule="nonzero"/></g><g clip-path="url(#159e782b8c)"><g clip-path="url(#254333bf99)"><g clip-path="url(#90773fd42c)"><g clip-path="url(#d5c975b3a1)"><path fill="#000000" d="M 158.777344 193.488281 C 158.296875 193.132812 157.683594 193.011719 157.101562 193.160156 L 123.917969 201.492188 L 120.976562 196.53125 C 120.523438 195.769531 119.621094 195.394531 118.761719 195.609375 L 112.824219 197.101562 C 111.75 197.371094 111.097656 198.460938 111.367188 199.535156 C 111.636719 200.609375 112.726562 201.257812 113.800781 200.988281 L 118.289062 199.863281 L 131.6875 222.441406 C 131.261719 224.082031 131.03125 226.339844 132.316406 227.855469 C 133.449219 229.203125 135.339844 229.554688 137.933594 228.902344 C 137.980469 228.890625 138.027344 228.878906 138.074219 228.859375 C 138.238281 228.800781 154.605469 223.058594 160.464844 221.933594 C 161.320312 221.769531 161.886719 220.941406 161.722656 220.082031 C 161.558594 219.222656 160.726562 218.660156 159.871094 218.828125 C 153.921875 219.96875 138.441406 225.378906 137.09375 225.851562 C 135.671875 226.199219 134.933594 226.050781 134.734375 225.816406 C 134.515625 225.554688 134.476562 224.964844 134.5625 224.265625 C 134.605469 224.253906 134.644531 224.242188 134.683594 224.226562 L 159.296875 214.78125 C 160.113281 214.46875 160.632812 213.667969 160.582031 212.796875 L 159.59375 194.992188 C 159.558594 194.394531 159.261719 193.84375 158.777344 193.488281 Z M 147.058594 206.457031 L 139.074219 208.464844 L 137.503906 202.214844 L 145.488281 200.210938 Z M 130.496094 212.574219 L 137.695312 210.765625 L 139.53125 218.074219 L 134.828125 219.878906 Z M 139.535156 210.304688 L 147.519531 208.300781 L 149.058594 214.417969 L 141.316406 217.386719 Z M 156.085938 204.191406 L 148.898438 205.996094 L 147.332031 199.746094 L 155.722656 197.636719 Z M 135.664062 202.675781 L 137.230469 208.925781 L 129.484375 210.871094 L 126.054688 205.089844 Z M 150.84375 213.730469 L 149.363281 207.835938 L 156.195312 206.121094 L 156.496094 211.5625 Z M 150.84375 213.730469 " fill-opacity="1" fill-rule="nonzero"/></g></g></g></g><g clip-path="url(#18b392784c)"><g clip-path="url(#900f1f4092)"><g clip-path="url(#f855bd9571)"><g clip-path="url(#ee7086d1da)"><path fill="#000000" d="M 140.785156 233.910156 C 140.851562 234.164062 140.886719 234.421875 140.902344 234.683594 C 140.914062 234.949219 140.902344 235.207031 140.863281 235.46875 C 140.824219 235.730469 140.761719 235.984375 140.671875 236.230469 C 140.585938 236.480469 140.472656 236.714844 140.335938 236.941406 C 140.203125 237.167969 140.046875 237.375 139.871094 237.570312 C 139.695312 237.765625 139.5 237.941406 139.289062 238.097656 C 139.078125 238.257812 138.851562 238.390625 138.613281 238.503906 C 138.378906 238.617188 138.132812 238.703125 137.875 238.769531 C 137.621094 238.832031 137.363281 238.871094 137.097656 238.882812 C 136.835938 238.898438 136.574219 238.886719 136.3125 238.847656 C 136.054688 238.808594 135.800781 238.746094 135.550781 238.65625 C 135.304688 238.566406 135.066406 238.457031 134.84375 238.320312 C 134.617188 238.1875 134.40625 238.03125 134.210938 237.855469 C 134.015625 237.675781 133.839844 237.484375 133.683594 237.273438 C 133.527344 237.0625 133.390625 236.835938 133.277344 236.597656 C 133.167969 236.363281 133.078125 236.117188 133.015625 235.859375 C 132.949219 235.605469 132.910156 235.347656 132.898438 235.082031 C 132.886719 234.820312 132.898438 234.558594 132.9375 234.300781 C 132.976562 234.039062 133.039062 233.785156 133.128906 233.539062 C 133.214844 233.289062 133.328125 233.054688 133.460938 232.828125 C 133.597656 232.601562 133.753906 232.390625 133.929688 232.195312 C 134.105469 232 134.300781 231.824219 134.511719 231.667969 C 134.722656 231.511719 134.949219 231.378906 135.183594 231.265625 C 135.421875 231.152344 135.667969 231.0625 135.925781 231 C 136.179688 230.9375 136.4375 230.898438 136.703125 230.882812 C 136.964844 230.871094 137.226562 230.882812 137.484375 230.921875 C 137.746094 230.960938 138 231.023438 138.246094 231.113281 C 138.496094 231.199219 138.730469 231.3125 138.957031 231.449219 C 139.183594 231.582031 139.394531 231.738281 139.589844 231.914062 C 139.785156 232.089844 139.960938 232.285156 140.117188 232.496094 C 140.273438 232.707031 140.410156 232.933594 140.519531 233.167969 C 140.632812 233.40625 140.722656 233.652344 140.785156 233.910156 Z M 140.785156 233.910156 " fill-opacity="1" fill-rule="nonzero"/></g></g></g></g><g clip-path="url(#8a521be1fb)"><g clip-path="url(#c61905602f)"><g clip-path="url(#3169231011)"><g clip-path="url(#b24d17de86)"><path fill="#000000" d="M 162.894531 228.355469 C 162.960938 228.609375 162.996094 228.867188 163.011719 229.132812 C 163.023438 229.394531 163.011719 229.65625 162.972656 229.914062 C 162.933594 230.175781 162.871094 230.429688 162.78125 230.675781 C 162.695312 230.925781 162.582031 231.160156 162.445312 231.386719 C 162.3125 231.613281 162.15625 231.824219 161.980469 232.019531 C 161.800781 232.214844 161.609375 232.390625 161.398438 232.546875 C 161.1875 232.703125 160.960938 232.839844 160.722656 232.949219 C 160.488281 233.0625 160.238281 233.152344 159.984375 233.214844 C 159.730469 233.28125 159.46875 233.316406 159.207031 233.332031 C 158.945312 233.34375 158.683594 233.332031 158.421875 233.292969 C 158.164062 233.253906 157.910156 233.191406 157.660156 233.101562 C 157.414062 233.015625 157.175781 232.902344 156.953125 232.769531 C 156.726562 232.632812 156.515625 232.476562 156.320312 232.300781 C 156.125 232.125 155.949219 231.929688 155.792969 231.71875 C 155.636719 231.507812 155.5 231.285156 155.386719 231.046875 C 155.277344 230.808594 155.1875 230.5625 155.125 230.308594 C 155.058594 230.050781 155.019531 229.792969 155.007812 229.53125 C 154.996094 229.269531 155.007812 229.007812 155.046875 228.746094 C 155.085938 228.488281 155.148438 228.230469 155.234375 227.984375 C 155.324219 227.738281 155.4375 227.5 155.570312 227.273438 C 155.707031 227.050781 155.863281 226.839844 156.039062 226.644531 C 156.214844 226.449219 156.410156 226.273438 156.621094 226.117188 C 156.832031 225.960938 157.054688 225.824219 157.292969 225.710938 C 157.53125 225.597656 157.777344 225.511719 158.035156 225.445312 C 158.289062 225.382812 158.546875 225.34375 158.808594 225.332031 C 159.074219 225.316406 159.335938 225.332031 159.59375 225.367188 C 159.855469 225.40625 160.109375 225.472656 160.355469 225.558594 C 160.605469 225.648438 160.839844 225.757812 161.066406 225.894531 C 161.292969 226.03125 161.503906 226.183594 161.699219 226.363281 C 161.894531 226.539062 162.070312 226.730469 162.226562 226.941406 C 162.382812 227.152344 162.515625 227.378906 162.628906 227.617188 C 162.742188 227.855469 162.832031 228.101562 162.894531 228.355469 Z M 162.894531 228.355469 " fill-opacity="1" fill-rule="nonzero"/></g></g></g></g><g fill="#000000" fill-opacity="1"><g transform="translate(131.868044, 188.472542)"><g><path d="M 8.40625 0 L 8.40625 -26.40625 L 14.203125 -26.40625 L 14.203125 0 Z M 0.71875 -21.5625 L 0.71875 -26.40625 L 21.921875 -26.40625 L 21.921875 -21.5625 Z M 0.71875 -21.5625 "/></g></g></g><g fill="#000000" fill-opacity="1"><g transform="translate(151.705975, 188.472542)"><g><path d="M 12.3125 0.5625 C 10.582031 0.5625 9.046875 0.320312 7.703125 -0.15625 C 6.359375 -0.632812 5.21875 -1.332031 4.28125 -2.25 C 3.34375 -3.175781 2.632812 -4.296875 2.15625 -5.609375 C 1.675781 -6.929688 1.4375 -8.4375 1.4375 -10.125 C 1.4375 -11.769531 1.671875 -13.289062 2.140625 -14.6875 C 2.609375 -16.09375 3.285156 -17.304688 4.171875 -18.328125 C 5.066406 -19.359375 6.164062 -20.15625 7.46875 -20.71875 C 8.78125 -21.28125 10.265625 -21.5625 11.921875 -21.5625 C 13.546875 -21.5625 14.976562 -21.289062 16.21875 -20.75 C 17.457031 -20.21875 18.488281 -19.429688 19.3125 -18.390625 C 20.144531 -17.359375 20.753906 -16.09375 21.140625 -14.59375 C 21.523438 -13.101562 21.648438 -11.382812 21.515625 -9.4375 L 5.15625 -9.3125 L 5.15625 -12.484375 L 18.125 -12.59375 L 16.203125 -10.953125 C 16.390625 -12.367188 16.300781 -13.53125 15.9375 -14.4375 C 15.582031 -15.34375 15.050781 -16.007812 14.34375 -16.4375 C 13.632812 -16.863281 12.835938 -17.078125 11.953125 -17.078125 C 10.941406 -17.078125 10.054688 -16.8125 9.296875 -16.28125 C 8.535156 -15.75 7.945312 -14.96875 7.53125 -13.9375 C 7.125 -12.914062 6.921875 -11.679688 6.921875 -10.234375 C 6.921875 -7.972656 7.410156 -6.316406 8.390625 -5.265625 C 9.378906 -4.210938 10.6875 -3.6875 12.3125 -3.6875 C 13.0625 -3.6875 13.695312 -3.785156 14.21875 -3.984375 C 14.738281 -4.179688 15.164062 -4.4375 15.5 -4.75 C 15.832031 -5.070312 16.09375 -5.429688 16.28125 -5.828125 C 16.46875 -6.234375 16.613281 -6.648438 16.71875 -7.078125 L 21.765625 -6.046875 C 21.578125 -5.054688 21.25 -4.160156 20.78125 -3.359375 C 20.3125 -2.554688 19.695312 -1.863281 18.9375 -1.28125 C 18.175781 -0.695312 17.25 -0.242188 16.15625 0.078125 C 15.0625 0.398438 13.78125 0.5625 12.3125 0.5625 Z M 12.3125 0.5625 "/></g></g></g><g fill="#000000" fill-opacity="1"><g transform="translate(174.903674, 188.472542)"><g><path d="M 12.28125 0.5625 C 10.46875 0.5625 8.878906 0.296875 7.515625 -0.234375 C 6.160156 -0.773438 5.035156 -1.523438 4.140625 -2.484375 C 3.242188 -3.441406 2.566406 -4.578125 2.109375 -5.890625 C 1.660156 -7.210938 1.4375 -8.660156 1.4375 -10.234375 C 1.4375 -11.890625 1.660156 -13.40625 2.109375 -14.78125 C 2.566406 -16.15625 3.25 -17.347656 4.15625 -18.359375 C 5.0625 -19.367188 6.179688 -20.15625 7.515625 -20.71875 C 8.847656 -21.28125 10.367188 -21.5625 12.078125 -21.5625 C 13.390625 -21.5625 14.5625 -21.394531 15.59375 -21.0625 C 16.632812 -20.726562 17.539062 -20.257812 18.3125 -19.65625 C 19.09375 -19.0625 19.726562 -18.34375 20.21875 -17.5 C 20.707031 -16.65625 21.035156 -15.71875 21.203125 -14.6875 L 15.921875 -13.078125 C 15.835938 -13.929688 15.613281 -14.65625 15.25 -15.25 C 14.894531 -15.851562 14.421875 -16.300781 13.828125 -16.59375 C 13.242188 -16.894531 12.566406 -17.046875 11.796875 -17.046875 C 11.160156 -17.046875 10.566406 -16.914062 10.015625 -16.65625 C 9.472656 -16.40625 8.992188 -16.019531 8.578125 -15.5 C 8.160156 -14.976562 7.832031 -14.300781 7.59375 -13.46875 C 7.351562 -12.644531 7.234375 -11.648438 7.234375 -10.484375 C 7.234375 -8.910156 7.441406 -7.628906 7.859375 -6.640625 C 8.273438 -5.648438 8.867188 -4.921875 9.640625 -4.453125 C 10.410156 -3.992188 11.316406 -3.765625 12.359375 -3.765625 C 13.398438 -3.765625 14.234375 -3.976562 14.859375 -4.40625 C 15.484375 -4.832031 15.945312 -5.367188 16.25 -6.015625 C 16.5625 -6.671875 16.742188 -7.359375 16.796875 -8.078125 L 21.875 -7 C 21.769531 -5.957031 21.503906 -4.976562 21.078125 -4.0625 C 20.648438 -3.144531 20.039062 -2.335938 19.25 -1.640625 C 18.46875 -0.941406 17.492188 -0.398438 16.328125 -0.015625 C 15.171875 0.367188 13.820312 0.5625 12.28125 0.5625 Z M 12.28125 0.5625 "/></g></g></g><g fill="#000000" fill-opacity="1"><g transform="translate(197.421434, 188.472542)"><g><path d="M 2.5625 0 L 2.5625 -21 L 7.28125 -21 L 7.234375 -14.484375 L 8 -14.484375 C 8.34375 -16.210938 8.851562 -17.585938 9.53125 -18.609375 C 10.21875 -19.640625 11.046875 -20.390625 12.015625 -20.859375 C 12.992188 -21.328125 14.09375 -21.5625 15.3125 -21.5625 C 16.707031 -21.5625 17.847656 -21.3125 18.734375 -20.8125 C 19.628906 -20.320312 20.34375 -19.675781 20.875 -18.875 C 21.414062 -18.082031 21.816406 -17.210938 22.078125 -16.265625 C 22.347656 -15.316406 22.519531 -14.375 22.59375 -13.4375 C 22.675781 -12.507812 22.71875 -11.671875 22.71875 -10.921875 L 22.71875 0 L 16.953125 0 L 16.953125 -10.234375 C 16.953125 -10.742188 16.925781 -11.359375 16.875 -12.078125 C 16.820312 -12.796875 16.679688 -13.507812 16.453125 -14.21875 C 16.234375 -14.925781 15.863281 -15.519531 15.34375 -16 C 14.820312 -16.476562 14.09375 -16.71875 13.15625 -16.71875 C 12.09375 -16.71875 11.207031 -16.390625 10.5 -15.734375 C 9.789062 -15.085938 9.25 -14.203125 8.875 -13.078125 C 8.5 -11.960938 8.3125 -10.707031 8.3125 -9.3125 L 8.3125 0 Z M 2.5625 0 "/></g></g></g><g fill="#000000" fill-opacity="1"><g transform="translate(222.418945, 188.472542)"><g><path d="M 12.125 0.5625 C 10.007812 0.5625 8.148438 0.144531 6.546875 -0.6875 C 4.953125 -1.53125 3.703125 -2.769531 2.796875 -4.40625 C 1.890625 -6.050781 1.4375 -8.101562 1.4375 -10.5625 C 1.4375 -13.007812 1.894531 -15.046875 2.8125 -16.671875 C 3.738281 -18.304688 5 -19.53125 6.59375 -20.34375 C 8.195312 -21.15625 10.023438 -21.5625 12.078125 -21.5625 C 14.179688 -21.5625 16.035156 -21.144531 17.640625 -20.3125 C 19.242188 -19.488281 20.503906 -18.253906 21.421875 -16.609375 C 22.335938 -14.972656 22.796875 -12.929688 22.796875 -10.484375 C 22.796875 -7.972656 22.328125 -5.90625 21.390625 -4.28125 C 20.460938 -2.65625 19.1875 -1.441406 17.5625 -0.640625 C 15.9375 0.160156 14.125 0.5625 12.125 0.5625 Z M 12.28125 -3.71875 C 12.914062 -3.71875 13.515625 -3.820312 14.078125 -4.03125 C 14.640625 -4.25 15.140625 -4.601562 15.578125 -5.09375 C 16.015625 -5.59375 16.359375 -6.257812 16.609375 -7.09375 C 16.867188 -7.9375 17 -8.957031 17 -10.15625 C 17 -11.4375 16.859375 -12.515625 16.578125 -13.390625 C 16.296875 -14.273438 15.921875 -14.988281 15.453125 -15.53125 C 14.992188 -16.082031 14.457031 -16.476562 13.84375 -16.71875 C 13.226562 -16.957031 12.585938 -17.078125 11.921875 -17.078125 C 11.304688 -17.078125 10.710938 -16.96875 10.140625 -16.75 C 9.566406 -16.539062 9.066406 -16.1875 8.640625 -15.6875 C 8.210938 -15.195312 7.863281 -14.539062 7.59375 -13.71875 C 7.332031 -12.894531 7.203125 -11.867188 7.203125 -10.640625 C 7.203125 -9.359375 7.332031 -8.273438 7.59375 -7.390625 C 7.863281 -6.515625 8.238281 -5.800781 8.71875 -5.25 C 9.195312 -4.707031 9.742188 -4.316406 10.359375 -4.078125 C 10.972656 -3.835938 11.613281 -3.71875 12.28125 -3.71875 Z M 12.28125 -3.71875 "/></g></g></g><g clip-path="url(#864a9d369a)"><path fill="#000000" d="M 190.636719 215.804688 C 190.664062 215.675781 190.6875 215.554688 190.722656 215.429688 L 190.828125 215.070312 C 190.886719 214.832031 190.992188 214.605469 191.066406 214.386719 C 191.257812 213.949219 191.457031 213.542969 191.703125 213.167969 C 191.953125 212.796875 192.214844 212.441406 192.527344 212.128906 C 193.140625 211.496094 193.859375 210.972656 194.714844 210.589844 L 194.875 210.511719 L 195.039062 210.449219 C 195.152344 210.410156 195.265625 210.359375 195.378906 210.320312 C 195.613281 210.257812 195.851562 210.160156 196.101562 210.105469 C 196.351562 210.039062 196.613281 209.992188 196.882812 209.945312 C 196.886719 209.945312 196.886719 209.941406 196.890625 209.941406 C 197.210938 209.890625 197.296875 209.457031 197.011719 209.300781 C 196.742188 209.152344 196.453125 209.035156 196.15625 208.945312 C 195.859375 208.855469 195.550781 208.816406 195.238281 208.773438 C 195.078125 208.753906 194.921875 208.761719 194.761719 208.757812 L 194.523438 208.757812 C 194.445312 208.761719 194.367188 208.773438 194.285156 208.78125 C 193.003906 208.902344 191.757812 209.53125 190.847656 210.484375 C 190.386719 210.960938 190.023438 211.523438 189.746094 212.121094 C 189.476562 212.722656 189.324219 213.367188 189.269531 214.011719 C 189.261719 214.171875 189.265625 214.335938 189.265625 214.496094 C 189.269531 214.578125 189.265625 214.65625 189.273438 214.734375 C 189.28125 214.816406 189.292969 214.894531 189.300781 214.972656 C 189.328125 215.132812 189.339844 215.289062 189.375 215.441406 C 189.410156 215.59375 189.449219 215.746094 189.496094 215.894531 C 189.574219 216.132812 189.671875 216.367188 189.785156 216.589844 C 189.964844 216.925781 190.46875 216.84375 190.519531 216.464844 C 190.550781 216.238281 190.589844 216.019531 190.636719 215.804688 Z M 273.503906 216.464844 C 273.554688 216.84375 274.0625 216.925781 274.238281 216.589844 C 274.351562 216.367188 274.449219 216.132812 274.527344 215.894531 C 274.578125 215.746094 274.613281 215.59375 274.648438 215.441406 C 274.683594 215.289062 274.699219 215.132812 274.722656 214.972656 C 274.730469 214.894531 274.742188 214.816406 274.75 214.734375 C 274.757812 214.65625 274.753906 214.578125 274.757812 214.496094 C 274.757812 214.335938 274.761719 214.171875 274.753906 214.011719 C 274.699219 213.367188 274.546875 212.722656 274.277344 212.121094 C 274 211.523438 273.636719 210.960938 273.175781 210.484375 C 272.265625 209.53125 271.019531 208.902344 269.738281 208.78125 C 269.660156 208.773438 269.582031 208.761719 269.5 208.757812 L 269.261719 208.757812 C 269.101562 208.761719 268.945312 208.753906 268.789062 208.773438 C 268.472656 208.816406 268.164062 208.855469 267.867188 208.945312 C 267.570312 209.035156 267.28125 209.152344 267.011719 209.300781 C 266.726562 209.457031 266.8125 209.890625 267.132812 209.941406 C 267.136719 209.941406 267.136719 209.945312 267.140625 209.945312 C 267.414062 209.992188 267.671875 210.039062 267.921875 210.105469 C 268.171875 210.160156 268.410156 210.257812 268.644531 210.320312 C 268.757812 210.359375 268.871094 210.410156 268.984375 210.449219 L 269.148438 210.511719 L 269.308594 210.589844 C 270.164062 210.972656 270.882812 211.496094 271.496094 212.128906 C 271.808594 212.441406 272.070312 212.796875 272.324219 213.167969 C 272.566406 213.542969 272.765625 213.949219 272.957031 214.386719 C 273.03125 214.605469 273.136719 214.832031 273.195312 215.070312 L 273.300781 215.429688 C 273.335938 215.554688 273.363281 215.675781 273.386719 215.804688 C 273.433594 216.019531 273.472656 216.238281 273.503906 216.464844 Z M 231.699219 231.246094 C 224.917969 231.246094 218.183594 229.84375 211.679688 227.074219 C 205.386719 224.398438 199.296875 220.4375 193.578125 215.304688 C 193.144531 214.914062 193.105469 214.246094 193.488281 213.804688 C 193.875 213.371094 194.535156 213.328125 194.96875 213.71875 C 206.199219 223.800781 218.898438 229.125 231.699219 229.125 C 244.605469 229.125 257.402344 223.710938 268.703125 213.46875 C 269.136719 213.074219 269.796875 213.113281 270.183594 213.546875 C 270.570312 213.984375 270.535156 214.652344 270.105469 215.042969 C 264.351562 220.257812 258.21875 224.285156 251.875 227.003906 C 245.324219 229.820312 238.535156 231.246094 231.699219 231.246094 " fill-opacity="1" fill-rule="nonzero"/></g><g fill="#000000" fill-opacity="1"><g transform="translate(167.515555, 205.09755)"><g><path d="M 9.015625 -6.796875 L 9.015625 -11.421875 L 10.34375 -11.421875 L 10.34375 0 L 9.015625 0 L 9.015625 -5.65625 L 3.078125 -5.65625 L 3.078125 0 L 1.734375 0 L 1.734375 -11.421875 L 3.078125 -11.421875 L 3.078125 -6.796875 Z M 9.015625 -6.796875 "/></g></g></g><g fill="#000000" fill-opacity="1"><g transform="translate(192.390706, 205.09755)"><g><path d="M 4.953125 0.171875 C 4.140625 0.171875 3.429688 0 2.828125 -0.34375 C 2.222656 -0.695312 1.757812 -1.207031 1.4375 -1.875 C 1.113281 -2.539062 0.953125 -3.351562 0.953125 -4.3125 C 0.953125 -5.257812 1.113281 -6.066406 1.4375 -6.734375 C 1.757812 -7.410156 2.222656 -7.921875 2.828125 -8.265625 C 3.429688 -8.609375 4.140625 -8.78125 4.953125 -8.78125 C 5.765625 -8.78125 6.46875 -8.609375 7.0625 -8.265625 C 7.664062 -7.921875 8.128906 -7.410156 8.453125 -6.734375 C 8.785156 -6.066406 8.953125 -5.257812 8.953125 -4.3125 C 8.953125 -3.351562 8.785156 -2.539062 8.453125 -1.875 C 8.128906 -1.207031 7.664062 -0.695312 7.0625 -0.34375 C 6.46875 0 5.765625 0.171875 4.953125 0.171875 Z M 4.953125 -0.984375 C 5.804688 -0.984375 6.460938 -1.253906 6.921875 -1.796875 C 7.378906 -2.335938 7.609375 -3.175781 7.609375 -4.3125 C 7.609375 -5.445312 7.378906 -6.285156 6.921875 -6.828125 C 6.460938 -7.367188 5.804688 -7.640625 4.953125 -7.640625 C 4.085938 -7.640625 3.425781 -7.367188 2.96875 -6.828125 C 2.507812 -6.285156 2.28125 -5.445312 2.28125 -4.3125 C 2.28125 -3.175781 2.507812 -2.335938 2.96875 -1.796875 C 3.425781 -1.253906 4.085938 -0.984375 4.953125 -0.984375 Z M 4.953125 -0.984375 "/></g></g></g><g fill="#000000" fill-opacity="1"><g transform="translate(215.078891, 205.09755)"><g><path d="M 4.265625 0.171875 C 3.285156 0.171875 2.554688 -0.0859375 2.078125 -0.609375 C 1.609375 -1.128906 1.375 -1.882812 1.375 -2.875 L 1.375 -8.625 L 2.640625 -8.625 L 2.640625 -2.90625 C 2.640625 -1.601562 3.253906 -0.953125 4.484375 -0.953125 C 5.265625 -0.953125 5.878906 -1.207031 6.328125 -1.71875 C 6.785156 -2.226562 7.015625 -3.054688 7.015625 -4.203125 L 7.015625 -8.625 L 8.296875 -8.625 L 8.296875 0 L 7.09375 0 L 7.09375 -1.359375 L 6.921875 -1.390625 C 6.628906 -0.867188 6.273438 -0.476562 5.859375 -0.21875 C 5.441406 0.0390625 4.910156 0.171875 4.265625 0.171875 Z M 4.265625 0.171875 "/></g></g></g><g fill="#000000" fill-opacity="1"><g transform="translate(237.665545, 205.09755)"><g><path d="M 3.9375 0.171875 C 3.394531 0.171875 2.890625 0.0976562 2.421875 -0.046875 C 1.960938 -0.191406 1.570312 -0.390625 1.25 -0.640625 C 0.9375 -0.890625 0.71875 -1.171875 0.59375 -1.484375 L 1.34375 -2.265625 L 1.5 -2.265625 C 1.78125 -1.835938 2.117188 -1.515625 2.515625 -1.296875 C 2.910156 -1.085938 3.382812 -0.984375 3.9375 -0.984375 C 4.570312 -0.984375 5.050781 -1.101562 5.375 -1.34375 C 5.707031 -1.59375 5.875 -1.941406 5.875 -2.390625 C 5.875 -2.722656 5.773438 -3 5.578125 -3.21875 C 5.378906 -3.445312 5.054688 -3.613281 4.609375 -3.71875 L 3.15625 -4.078125 C 2.375 -4.265625 1.804688 -4.5625 1.453125 -4.96875 C 1.097656 -5.375 0.921875 -5.878906 0.921875 -6.484375 C 0.921875 -6.953125 1.039062 -7.359375 1.28125 -7.703125 C 1.519531 -8.046875 1.863281 -8.3125 2.3125 -8.5 C 2.757812 -8.6875 3.296875 -8.78125 3.921875 -8.78125 C 4.710938 -8.78125 5.332031 -8.671875 5.78125 -8.453125 C 6.238281 -8.234375 6.597656 -7.925781 6.859375 -7.53125 L 6.140625 -6.828125 L 5.984375 -6.828125 C 5.703125 -7.140625 5.398438 -7.363281 5.078125 -7.5 C 4.753906 -7.644531 4.367188 -7.71875 3.921875 -7.71875 C 3.347656 -7.71875 2.910156 -7.613281 2.609375 -7.40625 C 2.304688 -7.207031 2.15625 -6.914062 2.15625 -6.53125 C 2.15625 -6.1875 2.257812 -5.90625 2.46875 -5.6875 C 2.6875 -5.476562 3.0625 -5.304688 3.59375 -5.171875 L 5.03125 -4.828125 C 5.78125 -4.648438 6.320312 -4.351562 6.65625 -3.9375 C 6.988281 -3.53125 7.15625 -3.019531 7.15625 -2.40625 C 7.15625 -1.894531 7.035156 -1.445312 6.796875 -1.0625 C 6.554688 -0.675781 6.191406 -0.375 5.703125 -0.15625 C 5.222656 0.0625 4.632812 0.171875 3.9375 0.171875 Z M 3.9375 0.171875 "/></g></g></g><g fill="#000000" fill-opacity="1"><g transform="translate(258.432324, 205.09755)"><g><path d="M 8.21875 -4.015625 L 2.296875 -4.015625 C 2.328125 -2.972656 2.578125 -2.207031 3.046875 -1.71875 C 3.515625 -1.226562 4.15625 -0.984375 4.96875 -0.984375 C 5.582031 -0.984375 6.078125 -1.09375 6.453125 -1.3125 C 6.828125 -1.53125 7.117188 -1.875 7.328125 -2.34375 L 7.5 -2.34375 L 8.328125 -1.84375 C 8.078125 -1.21875 7.675781 -0.722656 7.125 -0.359375 C 6.570312 -0.00390625 5.851562 0.171875 4.96875 0.171875 C 4.132812 0.171875 3.414062 0.00390625 2.8125 -0.328125 C 2.21875 -0.660156 1.757812 -1.160156 1.4375 -1.828125 C 1.113281 -2.492188 0.953125 -3.320312 0.953125 -4.3125 C 0.953125 -5.289062 1.117188 -6.113281 1.453125 -6.78125 C 1.796875 -7.457031 2.265625 -7.957031 2.859375 -8.28125 C 3.453125 -8.613281 4.128906 -8.78125 4.890625 -8.78125 C 5.992188 -8.78125 6.851562 -8.46875 7.46875 -7.84375 C 8.09375 -7.226562 8.40625 -6.304688 8.40625 -5.078125 C 8.40625 -4.597656 8.394531 -4.273438 8.375 -4.109375 Z M 7.15625 -5.078125 C 7.132812 -5.992188 6.929688 -6.660156 6.546875 -7.078125 C 6.160156 -7.492188 5.609375 -7.703125 4.890625 -7.703125 C 4.128906 -7.703125 3.535156 -7.492188 3.109375 -7.078125 C 2.679688 -6.660156 2.421875 -5.992188 2.328125 -5.078125 Z M 7.15625 -5.078125 "/></g></g></g></svg>