<?xml version="1.0" encoding="iso-8859-1"?>
<!-- Generator: Adobe Illustrator 28.5.0, SVG Export Plug-In . SVG Version: 9.03 Build 54727)  -->
<svg version="1.1" id="Capa_1" xmlns="http://www.w3.org/2000/svg" xmlns:xlink="http://www.w3.org/1999/xlink" x="0px" y="0px"
	 viewBox="0 0 115.07 34.31" style="enable-background:new 0 0 115.07 34.31;" xml:space="preserve">
<g>
	<path style="fill:#5C068C;" d="M35.85,13.07c-0.54-0.32-1.34-0.48-2.4-0.48c-1,0-1.98,0.2-2.94,0.6c-0.96,0.4-1.81,0.95-2.55,1.65
		l0.11-0.57c0.2-1-0.2-1.5-1.2-1.5c-0.48,0-0.88,0.13-1.19,0.39c-0.31,0.26-0.52,0.63-0.61,1.11l-2.68,13.42
		c-0.1,0.5-0.05,0.88,0.17,1.13c0.21,0.25,0.56,0.38,1.04,0.38c0.5,0,0.9-0.13,1.2-0.39c0.3-0.26,0.5-0.63,0.6-1.11l1.75-8.77
		c0.22-1.12,0.84-2.01,1.86-2.67c1.01-0.66,2.24-0.99,3.68-0.99c0.5,0,1.14,0.07,1.91,0.21c0.19,0.04,0.34,0.06,0.44,0.06
		c0.62,0,1.09-0.32,1.39-0.96c0.03-0.06,0.06-0.16,0.09-0.3C36.61,13.79,36.39,13.39,35.85,13.07L35.85,13.07z"/>
	<path style="fill:#5C068C;" d="M51.05,13.73c-1.03-0.72-2.26-1.08-3.7-1.08c-1.16,0-2.29,0.24-3.39,0.72
		c-1.1,0.48-2.08,1.15-2.95,2.01l1.91-8.85c0.09-0.46,0.03-0.83-0.2-1.11C42.49,5.14,42.15,5,41.69,5c-0.44,0-0.83,0.14-1.18,0.42
		c-0.35,0.28-0.57,0.65-0.66,1.11l-3.03,14.43c-0.31,1.56-0.23,2.98,0.25,4.25c0.48,1.27,1.27,2.27,2.37,3
		c1.1,0.73,2.43,1.1,3.97,1.1c1.54,0,3.02-0.37,4.44-1.1c1.42-0.73,2.61-1.73,3.59-3c0.97-1.27,1.62-2.69,1.93-4.25
		c0.31-1.56,0.26-2.98-0.16-4.25C52.8,15.44,52.07,14.45,51.05,13.73L51.05,13.73z M50.43,20.96c-0.21,1.06-0.64,2.02-1.28,2.88
		c-0.64,0.86-1.42,1.54-2.33,2.03c-0.91,0.49-1.86,0.74-2.86,0.74c-1,0-1.86-0.25-2.57-0.74c-0.71-0.49-1.21-1.17-1.5-2.03
		c-0.29-0.86-0.33-1.82-0.11-2.88c0.21-1.06,0.63-2.02,1.26-2.87c0.63-0.85,1.4-1.52,2.31-2.01s1.86-0.74,2.86-0.74
		c1,0,1.86,0.24,2.57,0.74c0.71,0.49,1.22,1.16,1.52,2.01C50.59,18.95,50.64,19.9,50.43,20.96L50.43,20.96z"/>
	<path style="fill:#5C068C;" d="M69.51,13.74c-1.11-0.73-2.43-1.1-3.97-1.1c-1.54,0-3.02,0.37-4.44,1.1c-1.42,0.73-2.61,1.73-3.59,3
		c-0.97,1.27-1.62,2.69-1.93,4.25c-0.31,1.56-0.26,2.98,0.16,4.25c0.42,1.27,1.14,2.27,2.17,2.99c1.03,0.72,2.26,1.08,3.7,1.08
		c1.16,0,2.29-0.24,3.39-0.72c1.1-0.48,2.08-1.15,2.95-2.01l-0.22,1.11c-0.09,0.44-0.02,0.81,0.22,1.1
		c0.23,0.29,0.57,0.44,1.01,0.44c0.44,0,0.84-0.14,1.18-0.44c0.35-0.29,0.57-0.66,0.65-1.1l1.34-6.7c0.31-1.56,0.23-2.98-0.25-4.25
		C71.41,15.47,70.62,14.47,69.51,13.74L69.51,13.74z M69.19,20.99c-0.21,1.06-0.63,2.02-1.26,2.87c-0.63,0.85-1.4,1.52-2.31,2.01
		c-0.91,0.49-1.86,0.74-2.86,0.74c-1,0-1.86-0.25-2.57-0.74c-0.71-0.49-1.22-1.16-1.52-2.01c-0.3-0.85-0.34-1.81-0.13-2.87
		c0.21-1.06,0.64-2.02,1.28-2.88c0.64-0.86,1.42-1.54,2.33-2.03c0.91-0.49,1.86-0.74,2.86-0.74c1,0,1.86,0.24,2.57,0.74
		c0.71,0.49,1.21,1.17,1.5,2.03C69.36,18.97,69.4,19.93,69.19,20.99L69.19,20.99z"/>
	<path style="fill:#5C068C;" d="M89.26,27.69l1.48-7.39c0.32-1.62,0.29-3.01-0.1-4.16c-0.39-1.15-1.08-2.03-2.06-2.63
		c-0.98-0.6-2.16-0.9-3.54-0.9c-1,0-1.98,0.18-2.93,0.53c-0.95,0.35-1.81,0.85-2.58,1.49l0.07-0.33c0.09-0.46,0.03-0.83-0.2-1.11
		c-0.22-0.28-0.57-0.42-1.03-0.42c-0.44,0-0.83,0.14-1.18,0.42c-0.35,0.28-0.56,0.65-0.66,1.11l-2.68,13.39
		c-0.09,0.44-0.02,0.81,0.22,1.1c0.23,0.29,0.57,0.44,1.01,0.44c0.46,0,0.86-0.14,1.2-0.44c0.34-0.29,0.55-0.66,0.64-1.1l1.69-8.47
		c0.14-0.72,0.47-1.37,0.97-1.95c0.51-0.58,1.14-1.04,1.9-1.38c0.76-0.34,1.56-0.51,2.4-0.51c1.44,0,2.51,0.42,3.22,1.25
		c0.7,0.83,0.9,2.06,0.57,3.68l-1.48,7.39c-0.09,0.44-0.02,0.81,0.22,1.1c0.23,0.29,0.57,0.44,1.01,0.44c0.44,0,0.83-0.14,1.18-0.44
		C88.95,28.5,89.17,28.13,89.26,27.69L89.26,27.69z"/>
	<path style="fill:#5C068C;" d="M109.67,16.67c-0.46-1.26-1.24-2.25-2.35-2.96c-1.11-0.71-2.45-1.07-4.04-1.07
		c-1.6,0-3.1,0.36-4.51,1.07c-1.4,0.71-2.58,1.7-3.53,2.96c-0.95,1.26-1.59,2.7-1.91,4.32c-0.32,1.6-0.26,3.03,0.19,4.29
		c0.45,1.26,1.23,2.25,2.35,2.96c1.12,0.71,2.48,1.07,4.08,1.07c1.6,0,3.1-0.36,4.49-1.07c1.39-0.71,2.57-1.7,3.52-2.96
		c0.95-1.26,1.59-2.69,1.91-4.29C110.2,19.37,110.13,17.93,109.67,16.67L109.67,16.67z M106.93,20.99c-0.22,1.08-0.63,2.05-1.25,2.9
		c-0.62,0.85-1.38,1.52-2.29,2c-0.91,0.48-1.87,0.72-2.89,0.72c-1.02,0-1.89-0.24-2.6-0.72c-0.71-0.48-1.22-1.15-1.51-2
		c-0.29-0.85-0.33-1.82-0.11-2.9c0.22-1.08,0.64-2.05,1.27-2.91c0.63-0.86,1.4-1.53,2.31-2.01c0.91-0.48,1.87-0.72,2.89-0.72
		c1.02,0,1.89,0.24,2.6,0.72c0.71,0.48,1.21,1.15,1.49,2.01C107.12,18.94,107.15,19.91,106.93,20.99L106.93,20.99z"/>
	<path style="fill:#1E91EB;" d="M8.49,10.68c-0.2,0-0.38-0.09-0.5-0.24c-0.12-0.15-0.17-0.35-0.12-0.55l0.68-3
		C8.65,6.4,8.91,5.98,9.31,5.65c0.4-0.33,0.85-0.49,1.35-0.49c0.51,0,0.91,0.18,1.17,0.52c0.27,0.34,0.34,0.78,0.23,1.29l-0.72,3.17
		c-0.07,0.31-0.35,0.54-0.67,0.54L8.49,10.68L8.49,10.68L8.49,10.68z"/>
	<path style="fill:#1E91EB;" d="M20.83,10.68c-0.2,0-0.38-0.09-0.5-0.24c-0.12-0.15-0.17-0.35-0.12-0.55l0.67-2.97
		c0.12-0.51,0.38-0.93,0.77-1.25c0.4-0.32,0.85-0.48,1.34-0.48c0.53,0,0.93,0.17,1.19,0.51c0.26,0.33,0.33,0.77,0.21,1.3l-0.71,3.14
		c-0.07,0.31-0.35,0.54-0.67,0.54L20.83,10.68L20.83,10.68L20.83,10.68z"/>
	<path style="fill:#1E91EB;" d="M11,29.27c-0.57,0-1.12-0.05-1.62-0.15c-0.59-0.12-1.14-0.31-1.62-0.56
		c-0.14-0.07-0.27-0.14-0.4-0.23c-0.91-0.57-1.57-1.38-1.97-2.42c-0.04-0.11-0.08-0.22-0.12-0.33c-0.03-0.08-0.05-0.16-0.07-0.23
		c-0.08-0.28-0.13-0.58-0.17-0.91c-0.05-0.44-0.06-0.9-0.02-1.38c0.03-0.55,0.12-1.14,0.26-1.76l1.07-4.73l0.32-1.86l0.34-1.4
		c0.07-0.31,0.35-0.54,0.67-0.54h2.19c0.2,0,0.38,0.09,0.5,0.24c0.12,0.15,0.17,0.35,0.12,0.55l-1.7,7.82
		C8.67,22,8.6,22.55,8.62,23.05c0.01,0.47,0.1,0.89,0.27,1.26c0.09,0.2,0.2,0.39,0.35,0.57c0.07,0.08,0.14,0.16,0.23,0.24
		c0.21,0.2,0.44,0.36,0.7,0.49c0.42,0.22,0.93,0.35,1.52,0.4c0.2,0.02,0.38,0.02,0.57,0.02c0.8,0,1.58-0.16,2.32-0.49
		c0.3-0.13,0.57-0.28,0.83-0.45c0.38-0.25,0.72-0.54,1.02-0.87c0.37-0.42,0.65-0.88,0.83-1.36c0.06-0.15,0.1-0.31,0.14-0.48
		l1.98-9.07c0.07-0.31,0.35-0.54,0.67-0.54h2.18c0.2,0,0.38,0.09,0.5,0.24c0.12,0.15,0.17,0.35,0.12,0.55l-3.05,13.82
		c-0.1,0.44-0.31,0.81-0.63,1.12c-0.03,0.04-0.08,0.07-0.11,0.1c-0.4,0.33-0.86,0.5-1.38,0.5c-0.51,0-0.9-0.18-1.17-0.52
		c-0.03-0.03-0.05-0.07-0.08-0.11c-0.1-0.17-0.17-0.36-0.19-0.56l-0.04-0.32l-0.27,0.17c-0.47,0.31-0.97,0.57-1.49,0.79
		c-0.13,0.05-0.26,0.11-0.41,0.16C13.04,29.09,12.02,29.27,11,29.27L11,29.27z"/>
</g>
</svg>
