<?xml version="1.0" encoding="iso-8859-1"?>
<!-- Generator: Adobe Illustrator 28.0.0, SVG Export Plug-In . SVG Version: 6.00 Build 0)  -->
<svg version="1.1" id="Capa_1" xmlns="http://www.w3.org/2000/svg" xmlns:xlink="http://www.w3.org/1999/xlink" x="0px" y="0px"
	 viewBox="0 0 182.05 84.77" style="enable-background:new 0 0 182.05 84.77;" xml:space="preserve">
<g>
	<path style="fill:#1A4A9C;" d="M88.39,47.47h75.76c7.12,0,12.9,5.78,12.9,12.9v6.5c0,7.12-5.78,12.9-12.9,12.9H88.39
		c-7.12,0-12.9-5.78-12.9-12.9v-6.5C75.49,53.25,81.27,47.47,88.39,47.47L88.39,47.47z"/>
	<path style="fill:#FFFFFF;" d="M112.11,53.77c1.97,0,3.64,0.65,5,1.94c1.36,1.29,2.01,2.93,2.01,4.93c0,2.01-0.68,3.64-2.01,4.93
		c-1.33,1.29-2.99,1.94-5,1.94l-2.62,0v5.89l-5,0V53.77L112.11,53.77L112.11,53.77z M112.11,62.72c1.12,0,1.97-0.88,1.97-2.11
		c0-1.22-0.88-2.08-1.97-2.08l-2.62,0v4.19L112.11,62.72L112.11,62.72z"/>
	<path style="fill:#FFFFFF;" d="M131.75,73.38l-0.85-2.83h-6.54l-0.85,2.83h-5.45l6.47-19.64h6.13l6.47,19.64h-5.41H131.75
		L131.75,73.38z M125.69,66.23h3.95l-1.97-6.67L125.69,66.23L125.69,66.23L125.69,66.23z"/>
	<polygon style="fill:#FFFFFF;" points="152.64,53.77 146.04,65.85 146.04,73.41 141.04,73.41 141.04,65.92 134.44,53.77 
		140.09,53.77 143.56,61.02 147.06,53.77 152.71,53.77 152.64,53.77 	"/>
	<path style="fill-rule:evenodd;clip-rule:evenodd;fill:#00CCFF;" d="M34.27,5c-1.71,0-3.01,1.37-3.09,3.07v0.49
		c-2.37-1.89-5.23-3.07-8.25-3.41c-3.01-0.34-6.06,0.18-8.8,1.49c-2.73,1.32-5.04,3.37-6.66,5.94C5.87,15.15,5.01,18.12,5,21.16
		c-0.01,3.03,0.84,6.01,2.45,8.58c1.61,2.57,3.9,4.64,6.63,5.97c2.73,1.33,5.77,1.86,8.79,1.53c3.02-0.33,5.88-1.49,8.26-3.37v2.92
		h6.08L37.27,5H34.27L34.27,5z M21.07,31.25c-1.32,0.01-2.63-0.25-3.86-0.76c-1.22-0.51-2.33-1.25-3.27-2.18
		c-0.93-0.94-1.67-2.05-2.18-3.28c-0.5-1.23-0.75-2.54-0.74-3.86c0-2.67,1.05-5.23,2.93-7.12c1.88-1.89,4.42-2.97,7.09-3
		c5.52-0.07,10.05,4.48,10.05,10.08v0.08c0.01,1.32-0.25,2.62-0.74,3.84c-0.5,1.22-1.23,2.33-2.16,3.26
		c-0.93,0.93-2.03,1.67-3.25,2.18c-1.22,0.51-2.52,0.77-3.84,0.76L21.07,31.25L21.07,31.25z M108.23,9.94
		c3,3.04,4.68,7.15,4.65,11.42c-0.02,4.27-1.75,8.36-4.78,11.37c-3.04,3-7.15,4.68-11.42,4.65c-4.27-0.02-8.36-1.75-11.37-4.79
		c-6.23-6.34-6.21-16.56,0.13-22.79c3.04-2.99,7.12-4.66,11.38-4.68c2.13,0,4.24,0.42,6.2,1.25c1.96,0.83,3.74,2.04,5.23,3.56
		H108.23L108.23,9.94z M86.79,21.34c0,1.99,0.59,3.93,1.69,5.58c1.1,1.65,2.67,2.94,4.5,3.7c1.83,0.76,3.85,0.96,5.8,0.58
		c1.95-0.38,3.74-1.34,5.14-2.74c1.41-1.4,2.37-3.19,2.76-5.14c0.39-1.95,0.2-3.97-0.56-5.8c-0.76-1.84-2.04-3.41-3.69-4.52
		c-1.65-1.11-3.59-1.7-5.57-1.71c-1.32,0-2.63,0.25-3.85,0.76s-2.33,1.24-3.27,2.18c-0.94,0.93-1.68,2.04-2.19,3.26
		C87.05,18.7,86.79,20.01,86.79,21.34L86.79,21.34z M124.62,8.77c2.89-2.29,6.46-3.54,10.15-3.55l2.91,0.01v3.08v0.08
		c-0.01,0.4-0.09,0.79-0.25,1.16c-0.16,0.37-0.39,0.7-0.68,0.98c-0.29,0.28-0.63,0.49-1,0.64c-0.37,0.14-0.77,0.21-1.17,0.2
		c-1.32,0-2.63,0.25-3.85,0.76c-1.22,0.5-2.33,1.24-3.27,2.18c-0.94,0.93-1.68,2.04-2.19,3.26c-0.51,1.22-0.77,2.53-0.77,3.85
		l-0.03,15.65h-6.08l0.06-28.79c0-0.82,0.33-1.6,0.91-2.18c0.58-0.58,1.36-0.9,2.18-0.9h3.08v3.08V8.77L124.62,8.77z M168.24,5.3
		c-1.7,0-3,1.37-3.09,3.07v0.49c-2.38-1.89-5.24-3.07-8.26-3.4c-3.02-0.33-6.07,0.19-8.81,1.5c-2.73,1.32-5.04,3.38-6.66,5.95
		c-1.62,2.57-2.48,5.54-2.49,8.58c-0.01,3.04,0.84,6.01,2.45,8.59c1.61,2.58,3.91,4.65,6.64,5.98c2.73,1.33,5.78,1.87,8.8,1.54
		c3.02-0.32,5.89-1.49,8.28-3.36v2.92h6.08l0.07-31.86L168.24,5.3L168.24,5.3z M155.04,31.55c-1.99-0.01-3.92-0.6-5.57-1.71
		c-1.65-1.11-2.93-2.68-3.68-4.52c-0.75-1.84-0.95-3.86-0.55-5.8c0.39-1.95,1.35-3.73,2.76-5.13c1.41-1.4,3.2-2.35,5.15-2.73
		c1.95-0.38,3.97-0.18,5.8,0.58c1.83,0.76,3.4,2.05,4.5,3.71c1.1,1.65,1.69,3.6,1.68,5.58v0.08c-0.02,2.65-1.1,5.19-2.98,7.05
		c-1.89,1.87-4.44,2.91-7.09,2.9L155.04,31.55L155.04,31.55z M71.65,5.07h0.4l3.08,0.01l-0.06,29.61c-0.01,2.34-0.58,4.64-1.64,6.73
		c-1.9,3.81-5.22,6.71-9.26,8.07c-4.03,1.36-8.44,1.06-12.25-0.82l1.31-3.08c0.29-0.63,0.78-1.15,1.4-1.46
		c0.62-0.31,1.33-0.39,2.01-0.24c0.69,0.16,1.4,0.25,2.11,0.25c1.31,0.04,2.61-0.17,3.83-0.63c1.22-0.46,2.34-1.16,3.29-2.05
		c0.95-0.9,1.72-1.97,2.25-3.16c0.53-1.19,0.83-2.48,0.86-3.78v-0.57c-2.86,2.24-6.39,3.45-10.02,3.44
		c-3.63-0.01-7.16-1.24-10.01-3.49c-1.67-1.31-3.06-2.94-4.1-4.79c-1.04-1.85-1.7-3.89-1.95-5.99c-0.25-2.11-0.08-4.24,0.5-6.28
		c0.58-2.04,1.55-3.95,2.87-5.61s2.95-3.05,4.8-4.08c1.85-1.03,3.89-1.68,6-1.92c2.11-0.24,4.24-0.06,6.28,0.53
		c2.04,0.59,3.94,1.57,5.6,2.89v-0.4c-0.01-0.76,0.26-1.5,0.75-2.08C70.21,5.56,70.89,5.18,71.65,5.07L71.65,5.07z M53.36,29.61
		c1.65,1.11,3.59,1.7,5.57,1.71V31.3c5.52,0.01,9.99-4.52,10.08-9.96v-0.08c0-1.99-0.59-3.93-1.69-5.58c-1.1-1.65-2.67-2.94-4.5-3.7
		c-1.83-0.76-3.85-0.96-5.8-0.58c-1.95,0.38-3.74,1.34-5.14,2.74c-1.41,1.4-2.37,3.19-2.76,5.13c-0.39,1.95-0.2,3.97,0.56,5.8
		C50.43,26.93,51.72,28.5,53.36,29.61L53.36,29.61z"/>
</g>
</svg>
