<?xml version="1.0" encoding="iso-8859-1"?>
<!-- Generator: Adobe Illustrator 28.0.0, SVG Export Plug-In . SVG Version: 6.00 Build 0)  -->
<svg version="1.1" id="Capa_1" xmlns="http://www.w3.org/2000/svg" xmlns:xlink="http://www.w3.org/1999/xlink" x="0px" y="0px"
	 viewBox="0 0 179.66 157.57" style="enable-background:new 0 0 179.66 157.57;" xml:space="preserve">
<g>
	<path style="fill:#6C4081;" d="M11.37,5C7.85,5,5,7.91,5,11.44v75.52h12.69V11.44C17.69,7.85,14.9,5,11.37,5L11.37,5z"/>
	<path style="fill:#6C4081;" d="M97.04,29.08l-5.57,6.93c-3.9-2.04-8.36-3.16-13.06-3.16c-15.6,0-28.23,12.38-28.23,27.73
		c0,9.35,4.7,17.64,11.88,22.66l0,0l0,0c0.43,0.25,0.8,0.56,1.24,0.81c2.66,1.79,8.67,6.13,8.73,8.67
		c-0.06,2.54-6.13,6.93-8.79,8.67c-0.37,0.25-0.74,0.5-1.11,0.74c-0.06,0-0.12,0.06-0.12,0.06h0c-7.24,5.01-11.95,13.31-11.95,22.66
		c0,15.29,12.63,27.73,28.23,27.73c15.6,0,28.23-12.38,28.23-27.67c0-9.35-4.7-17.64-11.95-22.66l0,0c0,0,0,0-0.12-0.06
		c-0.37-0.25-0.74-0.5-1.11-0.74c-2.66-1.79-8.73-6.13-8.79-8.67c0.06-2.54,6.07-6.87,8.73-8.67c0.43-0.25,0.8-0.5,1.24-0.8l0,0
		c7.24-5.01,11.95-13.31,11.95-22.66c0-6.07-1.98-11.7-5.39-16.28l6.13-7.61l-10.28-7.61L97.04,29.08L97.04,29.08z M78.35,46.29
		c8.05,0,14.55,6.44,14.55,14.3c0,7.92-6.5,14.3-14.61,14.3c-8.05,0-14.55-6.44-14.55-14.3C63.74,52.66,70.3,46.29,78.35,46.29
		L78.35,46.29L78.35,46.29z M78.29,139.2c-8.05,0-14.55-6.44-14.55-14.3c0-7.92,6.56-14.3,14.61-14.3c8.05,0,14.55,6.44,14.55,14.3
		C92.89,132.82,86.4,139.2,78.29,139.2L78.29,139.2z"/>
	<path style="fill:#6C4081;" d="M35.39,32.86c-3.65,0-6.62,2.91-6.62,6.5v47.66h13.19V39.36C41.95,35.76,39.04,32.86,35.39,32.86
		L35.39,32.86z"/>
	<path style="fill:#6C4081;" d="M35.39,12.92c-4.02,0-7.3,3.22-7.3,7.18c0,3.96,3.28,7.18,7.3,7.18c4.02,0,7.3-3.22,7.3-7.18
		C42.69,16.14,39.41,12.92,35.39,12.92L35.39,12.92z"/>
	<path style="fill:#6C4081;" d="M140.37,32.92c-15.6,0-28.23,12.38-28.29,27.73c0,15.35,12.63,27.73,28.23,27.73
		c15.6,0,28.23-12.38,28.23-27.73c0-15.29-12.63-27.73-28.23-27.73H140.37L140.37,32.92z M140.37,46.29
		c8.05,0,14.55,6.44,14.55,14.3c0,7.92-6.56,14.3-14.61,14.3c-8.05,0-14.55-6.44-14.55-14.3C125.76,52.66,132.26,46.29,140.37,46.29
		L140.37,46.29z"/>
	<path style="fill:#6C4081;" d="M170.52,31.56c2.23,0,4.15,1.73,4.15,4.02c0,2.29-1.92,4.08-4.15,4.08c-2.23,0-4.15-1.73-4.15-4.08
		C166.37,33.29,168.29,31.56,170.52,31.56L170.52,31.56L170.52,31.56z M170.52,39.11c1.92,0,3.4-1.49,3.4-3.47
		c0-1.98-1.49-3.47-3.4-3.47c-1.92,0-3.4,1.49-3.4,3.47C167.11,37.62,168.6,39.11,170.52,39.11L170.52,39.11L170.52,39.11z
		 M168.91,33.23h1.86c1.18,0,1.67,0.43,1.67,1.36c0,0.87-0.56,1.24-1.3,1.3l1.36,2.11h-0.8l-1.3-2.04l-0.8,0v2.04l-0.74,0v-4.77
		L168.91,33.23L168.91,33.23z M169.71,35.33h0.45h0.36c0.68,0,1.3,0,1.3-0.8c0-0.62-0.56-0.74-1.05-0.74h-0.61h-0.39h-0.18v1.55
		H169.71L169.71,35.33z"/>
</g>
</svg>
