<?xml version="1.0" encoding="iso-8859-1"?>
<!-- Generator: Adobe Illustrator 21.0.0, SVG Export Plug-In . SVG Version: 6.00 Build 0)  -->
<svg version="1.1" id="Capa_1" xmlns="http://www.w3.org/2000/svg" xmlns:xlink="http://www.w3.org/1999/xlink" x="0px" y="0px"
	 viewBox="0 0 250.13 55.17" style="enable-background:new 0 0 250.13 55.17;" xml:space="preserve">
<g>
	<path style="fill:#040006;" d="M74.56,18.47c0-1.03-0.36-1.75-1.07-2.17c-0.71-0.41-1.87-0.62-3.48-0.62c-0.43,0-1,0.02-1.69,0.06
		c-0.7,0.04-1.16,0.07-1.38,0.09l-1.43,8.09c1.1,0.07,2.11,0.1,3.04,0.1c1.73,0,3.06-0.35,3.99-1.05c0.93-0.7,1.54-1.71,1.83-3.03
		l0.07-0.3C74.52,19.24,74.56,18.85,74.56,18.47L74.56,18.47z M79.23,18.44c0,0.52-0.03,0.92-0.1,1.2l-0.08,0.3
		c-0.46,2.07-1.23,3.69-2.3,4.86c-1.07,1.17-2.34,1.98-3.83,2.43c-1.48,0.45-3.17,0.68-5.05,0.68c-0.22,0-0.49-0.01-0.8-0.02
		c-0.31-0.02-0.6-0.03-0.87-0.04c-0.27-0.01-0.53-0.02-0.78-0.04c-0.25-0.02-0.43-0.02-0.56-0.02l-1.56,8.87
		c-0.03,0.2-0.13,0.36-0.28,0.49c-0.16,0.13-0.32,0.19-0.5,0.19h-3.4c-0.16,0-0.28-0.05-0.38-0.15c-0.1-0.1-0.15-0.23-0.15-0.4v-0.1
		v-0.03l4.1-23.4c0.08-0.32,0.22-0.56,0.41-0.71c0.2-0.15,0.48-0.25,0.85-0.31c1.92-0.3,4.16-0.45,6.74-0.45
		c2.71,0,4.81,0.53,6.3,1.59c1.49,1.06,2.23,2.57,2.23,4.54V18.44L79.23,18.44z"/>
	<path style="fill:#040006;" d="M87.88,33.92l0.91-5.03h-2.52c-1.34,0-2.28,0.18-2.82,0.55c-0.54,0.37-0.89,1.03-1.06,2.01
		c-0.04,0.29-0.07,0.57-0.07,0.85c0,0.65,0.24,1.13,0.72,1.44c0.48,0.31,1.28,0.46,2.4,0.46C86.44,34.2,87.25,34.11,87.88,33.92
		L87.88,33.92z M87.05,21.65c-0.92,0-1.8,0.08-2.66,0.25c-0.85,0.17-1.75,0.38-2.71,0.63c-0.24,0.07-0.43,0.1-0.55,0.1
		c-0.2,0-0.3-0.11-0.3-0.33c0-0.14,0.03-0.42,0.1-0.81l0.3-1.71c0.01-0.14,0.04-0.27,0.1-0.37c0.06-0.1,0.14-0.19,0.25-0.27
		c0.11-0.07,0.29-0.15,0.53-0.24c1.98-0.65,4.01-0.98,6.1-0.98c1.94,0,3.42,0.42,4.44,1.25c1.02,0.84,1.54,2.07,1.54,3.71
		c0,0.53-0.04,1.04-0.13,1.53L92.01,36c-0.04,0.24-0.1,0.41-0.17,0.51c-0.07,0.09-0.21,0.18-0.42,0.24
		c-0.82,0.21-1.48,0.37-1.98,0.46c-0.5,0.1-1.13,0.19-1.89,0.27c-0.76,0.08-1.64,0.12-2.65,0.12c-4.74,0-7.11-1.58-7.11-4.75
		c0-0.45,0.05-0.95,0.15-1.49c0.17-1,0.44-1.84,0.83-2.52c0.39-0.69,0.91-1.25,1.58-1.68c0.66-0.43,1.52-0.75,2.57-0.95
		c1.05-0.2,2.3-0.3,3.76-0.3h2.62c0.24-1.35,0.37-2.14,0.37-2.38c0-0.72-0.21-1.21-0.62-1.48C88.63,21.78,87.97,21.65,87.05,21.65
		L87.05,21.65z"/>
	<path style="fill:#040006;" d="M108.72,21.88c-0.4-0.09-0.87-0.16-1.41-0.22c-0.54-0.05-1.14-0.08-1.79-0.08
		c-0.91,0-1.66,0.17-2.27,0.52c-0.6,0.35-1.08,0.87-1.44,1.58c-0.35,0.7-0.63,1.63-0.81,2.77l-0.45,2.61
		c-0.16,0.95-0.23,1.67-0.23,2.14c0,0.93,0.23,1.62,0.69,2.06c0.46,0.44,1.24,0.66,2.33,0.66c0.88,0,1.98-0.09,3.31-0.27
		L108.72,21.88L108.72,21.88z M101.94,44.14c-1.07,0-2.21-0.14-3.4-0.41c-1.2-0.27-2.2-0.6-3.02-0.99c-0.37-0.2-0.55-0.43-0.55-0.68
		v-0.22l0.28-1.59c0.07-0.39,0.23-0.58,0.5-0.58c0.14,0,0.25,0.01,0.32,0.03c0.86,0.22,1.84,0.42,2.92,0.58
		c1.09,0.17,2.15,0.25,3.21,0.25c1.28,0,2.21-0.22,2.77-0.66c0.56-0.44,0.91-1.23,1.04-2.38l0.03-0.27
		c-1.19,0.22-2.21,0.33-3.09,0.33c-2.12,0-3.82-0.53-5.11-1.58c-1.29-1.05-1.94-2.67-1.94-4.85c0-0.76,0.06-1.46,0.17-2.08
		l0.45-2.61c0.37-2.1,0.95-3.77,1.74-5.02c0.8-1.24,1.84-2.14,3.14-2.69c1.3-0.55,2.88-0.83,4.77-0.83c1.07,0,2.23,0.08,3.45,0.25
		c1.23,0.17,2.3,0.38,3.22,0.63c0.28,0.08,0.48,0.16,0.6,0.25c0.12,0.09,0.18,0.23,0.18,0.43c0,0.04,0,0.08-0.01,0.12
		c-0.01,0.03-0.01,0.07-0.03,0.12l-3.11,17.56c-0.31,1.69-0.77,3.03-1.38,4.02c-0.61,0.99-1.49,1.71-2.63,2.17
		C105.32,43.91,103.81,44.14,101.94,44.14L101.94,44.14z"/>
	<path style="fill:#040006;" d="M127.05,24.87c0-1.03-0.25-1.8-0.74-2.32c-0.49-0.51-1.24-0.77-2.23-0.77
		c-1.12,0-2.07,0.36-2.84,1.09c-0.77,0.72-1.31,1.9-1.61,3.51l-0.52,2.74c-0.09,0.49-0.13,0.99-0.13,1.51c0,2.06,1,3.09,2.99,3.09
		c2.39,0,3.87-1.53,4.43-4.6l0.5-2.74C127,25.92,127.05,25.41,127.05,24.87L127.05,24.87z M131.57,24.6c0,0.54-0.06,1.14-0.17,1.78
		l-0.51,2.74c-1.05,5.65-4.25,8.47-9.6,8.47c-1.45,0-2.69-0.31-3.73-0.93c-1.04-0.62-1.8-1.44-2.31-2.47
		c-0.5-1.03-0.76-2.17-0.76-3.42c0-0.61,0.04-1.16,0.13-1.64l0.51-2.74c0.52-2.81,1.59-4.93,3.2-6.34c1.61-1.42,3.75-2.13,6.42-2.13
		c1.54,0,2.82,0.3,3.85,0.9c1.03,0.6,1.78,1.4,2.25,2.42C131.33,22.24,131.57,23.36,131.57,24.6L131.57,24.6z"/>
	<path style="fill:#040006;" d="M151.78,12.73c0,0.04,0,0.08-0.01,0.12c-0.01,0.03-0.01,0.08-0.02,0.13l-0.38,2.18
		c-0.03,0.18-0.13,0.33-0.3,0.47c-0.17,0.14-0.34,0.21-0.52,0.21h-6.94c-1,0-1.73,0.21-2.19,0.62c-0.46,0.41-0.8,1.18-1,2.3
		l-0.65,3.67h9.22c0.17,0,0.3,0.06,0.42,0.18c0.11,0.12,0.17,0.25,0.17,0.4v0.07v0.03l-0.45,2.44c-0.03,0.19-0.13,0.35-0.3,0.48
		c-0.17,0.13-0.34,0.2-0.51,0.2h-9.22l-0.75,4.4c-0.07,0.43-0.1,0.8-0.1,1.11c0,0.66,0.17,1.13,0.52,1.4
		c0.35,0.27,0.93,0.41,1.75,0.41h6.94c0.35,0,0.53,0.18,0.53,0.53v0.12v0.03l-0.37,2.18c-0.06,0.41-0.33,0.65-0.81,0.71
		c-0.26,0.03-0.57,0.08-0.95,0.14c-0.38,0.06-0.92,0.12-1.63,0.18c-0.71,0.05-1.3,0.09-1.76,0.12c-0.46,0.02-1.2,0.03-2.21,0.03
		c-2.04,0-3.67-0.43-4.91-1.3c-1.23-0.87-1.85-2.22-1.85-4.06c0-0.57,0.04-1.1,0.13-1.59l2.08-11.88c0.27-1.48,0.67-2.69,1.21-3.63
		c0.54-0.94,1.19-1.65,1.95-2.13c0.76-0.48,1.6-0.81,2.54-0.97c0.94-0.17,2.06-0.25,3.38-0.25c1.8,0,3.12,0.04,3.95,0.12
		c0.83,0.08,1.64,0.2,2.44,0.36C151.58,12.33,151.78,12.48,151.78,12.73L151.78,12.73z"/>
	<path style="fill:#040006;" d="M165.54,11.78v0.07l-0.33,2.01c-0.03,0.18-0.11,0.32-0.24,0.42c-0.13,0.11-0.25,0.16-0.37,0.16
		h-1.53c-0.59,0-1.02,0.05-1.31,0.16c-0.29,0.11-0.52,0.3-0.68,0.6c-0.17,0.29-0.3,0.72-0.4,1.29l-0.3,1.66h3.26
		c0.39,0,0.58,0.19,0.58,0.58v0.1l-0.37,2.04c-0.03,0.19-0.12,0.34-0.27,0.46c-0.15,0.12-0.32,0.18-0.51,0.18h-3.27l-2.82,16.01
		c-0.27,1.52-0.7,2.68-1.31,3.48c-0.61,0.8-1.35,1.33-2.22,1.59c-0.88,0.25-1.98,0.38-3.31,0.38c-0.49,0-1.15-0.09-1.99-0.27
		c-0.13-0.02-0.25-0.07-0.36-0.16c-0.1-0.08-0.16-0.19-0.16-0.32v-0.07l0.33-2.01c0.07-0.39,0.27-0.58,0.61-0.58h1.53
		c0.82,0,1.39-0.14,1.7-0.41c0.32-0.27,0.55-0.82,0.69-1.64l2.82-16.01l-2.97-0.48c-0.35-0.07-0.53-0.25-0.53-0.55v-0.1l0.27-1.56
		c0.03-0.2,0.12-0.36,0.27-0.49c0.14-0.13,0.32-0.19,0.52-0.19h3.02l0.32-1.66c0.22-1.2,0.53-2.16,0.93-2.89
		c0.4-0.73,0.88-1.28,1.44-1.64c0.56-0.36,1.19-0.6,1.9-0.73c0.71-0.13,1.57-0.19,2.57-0.19c0.46,0,1.13,0.09,1.99,0.27
		c0.13,0.01,0.25,0.06,0.36,0.15C165.49,11.54,165.54,11.65,165.54,11.78L165.54,11.78z"/>
	<path style="fill:#040006;" d="M175.34,24.8c0-0.98-0.25-1.74-0.76-2.25c-0.5-0.51-1.23-0.77-2.18-0.77c-2.43,0-3.9,1.44-4.42,4.32
		h7.21C175.29,25.58,175.34,25.15,175.34,24.8L175.34,24.8z M170.06,37.59c-1.12,0-2.11-0.14-2.98-0.42
		c-0.87-0.28-1.62-0.72-2.27-1.31c-0.64-0.59-1.13-1.31-1.46-2.16c-0.33-0.85-0.5-1.82-0.5-2.93c0-0.76,0.06-1.44,0.17-2.04
		l0.38-2.11c0.54-3.09,1.62-5.31,3.23-6.67c1.61-1.36,3.76-2.04,6.45-2.04c2.18,0,3.84,0.64,4.97,1.92c1.14,1.28,1.7,2.96,1.7,5.04
		c0,0.58-0.06,1.22-0.17,1.94l-0.28,1.63c-0.1,0.58-0.37,0.86-0.81,0.86h-11.1c-0.11,0.78-0.17,1.24-0.17,1.39
		c0,1,0.29,1.76,0.86,2.28c0.57,0.52,1.57,0.78,3,0.78c1.73,0,3.73-0.35,6.01-1.06c0.07-0.02,0.17-0.03,0.32-0.03
		c0.22,0,0.33,0.12,0.33,0.35c0,0.09-0.01,0.17-0.03,0.23l-0.38,2.18c-0.03,0.22-0.11,0.39-0.22,0.5c-0.11,0.11-0.33,0.24-0.66,0.4
		c-0.6,0.24-1.2,0.45-1.8,0.62c-0.6,0.17-1.33,0.32-2.17,0.46C171.64,37.53,170.83,37.59,170.06,37.59L170.06,37.59z"/>
	<path style="fill:#040006;" d="M187.61,37.59c-0.95,0-1.82-0.15-2.6-0.45c-0.78-0.3-1.47-0.75-2.08-1.35
		c-0.6-0.6-1.06-1.3-1.36-2.09c-0.3-0.79-0.46-1.67-0.46-2.63c0-0.46,0.06-1.04,0.17-1.73l0.58-3.17c0.39-2.05,1.02-3.68,1.89-4.9
		c0.87-1.22,1.91-2.08,3.11-2.59c1.21-0.51,2.56-0.76,4.05-0.76c1.49,0,2.95,0.36,4.35,1.08c0.41,0.22,0.61,0.45,0.61,0.68
		c0,0.04,0,0.08-0.01,0.11c-0.01,0.03-0.01,0.06-0.02,0.09l-0.42,2.04c-0.03,0.39-0.22,0.58-0.55,0.58c-0.11,0-0.2-0.01-0.27-0.03
		c-1.72-0.5-3.01-0.75-3.89-0.75c-1.21,0-2.16,0.33-2.87,0.99c-0.71,0.66-1.21,1.81-1.51,3.46l-0.58,3.17
		c-0.11,0.72-0.17,1.27-0.17,1.66c0,0.96,0.24,1.67,0.73,2.12c0.49,0.45,1.24,0.67,2.26,0.67c1.01,0,2.4-0.27,4.19-0.81
		c0.07-0.02,0.17-0.03,0.32-0.03c0.22,0,0.33,0.11,0.33,0.33c0,0.09-0.01,0.17-0.03,0.25l-0.4,2.31c-0.03,0.22-0.12,0.39-0.25,0.52
		c-0.13,0.12-0.35,0.24-0.65,0.37c-0.58,0.25-1.25,0.47-2.01,0.63C189.32,37.51,188.5,37.59,187.61,37.59L187.61,37.59z"/>
	<path style="fill:#040006;" d="M209,18.72v0.1l-0.33,2.01c-0.03,0.18-0.13,0.33-0.3,0.47c-0.17,0.14-0.34,0.21-0.51,0.21h-3.06
		l-1.88,10.68c-0.11,0.55-0.17,0.95-0.17,1.18c0,0.29,0.08,0.48,0.25,0.57c0.17,0.09,0.46,0.14,0.9,0.14h1.81
		c0.41,0,0.61,0.14,0.61,0.42v0.1l-0.38,2.14c-0.07,0.34-0.32,0.55-0.75,0.61c-0.99,0.15-1.77,0.23-2.34,0.23
		c-1.55,0-2.71-0.29-3.48-0.88c-0.77-0.59-1.15-1.54-1.15-2.86c0-0.42,0.06-0.97,0.17-1.66l1.88-10.68l-3.12-0.48
		c-0.37-0.03-0.55-0.23-0.55-0.58v-0.1l0.27-1.53c0.03-0.2,0.12-0.36,0.27-0.49c0.14-0.13,0.32-0.19,0.51-0.19h3.21l0.51-2.79
		c0.07-0.38,0.33-0.6,0.78-0.68l3.26-0.55h0.15c0.31,0,0.46,0.14,0.46,0.42v0.1l-0.65,3.5h3.07c0.18,0,0.32,0.05,0.42,0.16
		C208.95,18.41,209,18.55,209,18.72L209,18.72z"/>
	<path style="fill:#040006;" d="M216.9,11.81v0.1l-0.55,2.99c-0.03,0.2-0.13,0.36-0.28,0.49c-0.15,0.13-0.32,0.19-0.5,0.19h-3.31
		c-0.16,0-0.3-0.05-0.42-0.16c-0.13-0.11-0.19-0.24-0.19-0.41V14.9l0.55-2.99c0.03-0.18,0.13-0.33,0.3-0.47
		c0.17-0.14,0.34-0.21,0.51-0.21h3.31C216.71,11.23,216.9,11.43,216.9,11.81L216.9,11.81z M215.57,18.72v0.1l-3.12,17.79
		c-0.03,0.19-0.13,0.35-0.3,0.5c-0.17,0.14-0.34,0.22-0.53,0.22h-3.12c-0.16,0-0.28-0.06-0.39-0.17c-0.11-0.12-0.16-0.25-0.16-0.41
		v-0.13l3.14-17.79c0.03-0.2,0.12-0.36,0.27-0.49c0.15-0.13,0.32-0.19,0.51-0.19h3.12C215.38,18.14,215.57,18.34,215.57,18.72
		L215.57,18.72z"/>
	<path style="fill:#040006;" d="M234.62,18.59c0,0.13-0.02,0.24-0.07,0.33l-7.01,15.48c-0.52,1.15-1.2,1.97-2.05,2.46
		c-0.85,0.49-1.76,0.73-2.75,0.73c-2.25,0-3.47-1.06-3.67-3.19l-1.56-15.48v-0.07c0-0.19,0.06-0.35,0.19-0.5
		c0.13-0.14,0.27-0.22,0.44-0.22h3.27c0.35,0,0.55,0.23,0.58,0.68l0.75,14.25c0.03,0.56,0.2,0.85,0.51,0.85
		c0.28,0,0.54-0.28,0.78-0.85l5.78-14.25c0.17-0.45,0.44-0.68,0.81-0.68h3.54C234.47,18.14,234.62,18.29,234.62,18.59L234.62,18.59z
		"/>
	<path style="fill:#040006;" d="M245.61,24.87c0-1.03-0.25-1.8-0.74-2.32c-0.49-0.51-1.24-0.77-2.23-0.77
		c-1.12,0-2.06,0.36-2.84,1.09c-0.77,0.72-1.31,1.9-1.61,3.51l-0.52,2.74c-0.09,0.49-0.13,0.99-0.13,1.51c0,2.06,1,3.09,2.99,3.09
		c2.39,0,3.87-1.53,4.43-4.6l0.5-2.74C245.56,25.92,245.61,25.41,245.61,24.87L245.61,24.87z M250.13,24.6
		c0,0.54-0.06,1.14-0.17,1.78l-0.51,2.74c-1.05,5.65-4.25,8.47-9.6,8.47c-1.45,0-2.69-0.31-3.73-0.93c-1.04-0.62-1.8-1.44-2.31-2.47
		c-0.5-1.03-0.76-2.17-0.76-3.42c0-0.61,0.04-1.16,0.13-1.64l0.51-2.74c0.52-2.81,1.59-4.93,3.2-6.34c1.61-1.42,3.75-2.13,6.42-2.13
		c1.54,0,2.82,0.3,3.85,0.9c1.03,0.6,1.78,1.4,2.25,2.42C249.9,22.24,250.13,23.36,250.13,24.6L250.13,24.6z"/>
	<path style="fill:#EBC12C;" d="M29.62,9.06C21.4,4.54,14.07,1.96,9.85,1.96c-1.17,0-2.1,0.2-2.75,0.61
		C3.49,4.87,1.26,18.86,2.14,33.76c0.7,11.87,3.02,18.16,5.02,19.12c3.58,1.72,16.18-3.1,28.7-10.96c10.53-6.62,15.25-11.8,15.25-14
		C51.1,23.96,41.67,15.68,29.62,9.06L29.62,9.06z"/>
	<path style="fill:#FFFFFF;" d="M35.86,41.92C23.34,49.78,10.74,54.6,7.16,52.88c-2-0.96-4.32-7.24-5.02-19.12
		C1.26,18.86,3.49,4.86,7.1,2.57c0.64-0.41,1.58-0.61,2.75-0.61c4.22,0,11.55,2.58,19.77,7.09C41.67,15.68,51.1,23.96,51.1,27.92
		C51.1,30.11,46.39,35.3,35.86,41.92L35.86,41.92z M30.56,7.34C26.21,4.94,11.57-2.59,6.05,0.91C0.53,4.42-0.49,22.55,0.18,33.88
		c0.32,5.51,1.57,18.58,6.13,20.77c0.74,0.36,1.68,0.52,2.78,0.52c6.41,0,18.26-5.59,27.81-11.59c4.86-3.06,16.16-10.7,16.16-15.66
		C53.07,22.27,41.4,13.29,30.56,7.34L30.56,7.34z"/>
	<path style="fill:#040006;" d="M33.11,17.59c-1.98-1.22-4.76-1.83-8.36-1.83c-3.42,0-6.4,0.17-8.94,0.51
		c-0.49,0.07-0.86,0.18-1.12,0.36c-0.26,0.17-0.45,0.44-0.55,0.81l-0.7,3.45h9.82l0.51-3.17l6.39,7.78l-8.89,7.64l0.57-3.55H11.68
		L8.69,44.38v0.04v0.11c0,0.19,0.07,0.34,0.2,0.46c0.13,0.11,0.3,0.17,0.51,0.17h4.52c0.23,0,0.46-0.07,0.66-0.22
		c0.21-0.15,0.33-0.34,0.37-0.57l2.07-8.86c0.16,0,0.41,0.01,0.74,0.03c0.33,0.02,0.68,0.03,1.04,0.05
		c0.36,0.01,0.75,0.03,1.16,0.05c0.41,0.02,0.76,0.03,1.06,0.03c2.5,0,4.7-0.38,6.7-0.78c6.11-1.23,8.35-7.39,8.37-12.07
		C36.08,20.55,35.08,18.81,33.11,17.59L33.11,17.59z"/>
</g>
</svg>
